Coordinates
version=1
nRows=13
nColumns=18
inDegrees=yes

Units are S.I. units (second, meters, Newtons, ...)
If the header above contains a line with 'inDegrees', this indicates whether rotational values are in degrees (yes) or radians (no).

endheader
time	ground_thorax_rot_x	ground_thorax_rot_y	ground_thorax_rot_z	ground_thorax_tx	ground_thorax_ty	ground_thorax_tz	clav_prot	clav_elev	scapula_abduction	scapula_elevation	scapula_upward_rot	scapula_winging	plane_elv	shoulder_elv	axial_rot	elbow_flexion	pro_sup
      2.56000000	      5.27175946	      5.14516296	    -11.89803272	     -0.01081704	      0.01155821	      0.03257482	    -30.89872343	    -13.94390066	    -38.13103773	    -11.66513324	     13.56470926	     19.57004875	    -42.53929075	     21.15964465	     47.13078710	      0.00225791	    -90.00000000
      2.58000000	      5.28219086	      5.51277826	    -11.38991299	     -0.01284410	      0.01180842	      0.03254333	    -30.72231354	    -14.12301224	    -37.71451786	    -11.80554940	     13.63889579	     19.66322719	    -41.42712900	     20.81035807	     46.38851521	      0.00225791	    -90.00000000
      2.60000000	      5.33179127	      5.75611181	    -11.32828919	     -0.01424760	      0.01178671	      0.03320090	    -30.89648027	    -14.49993831	    -37.99053970	    -12.06802165	     13.51981576	     19.87198890	    -38.56051693	     20.36063894	     43.45592863	      0.00225791	    -90.00000000
      2.62000000	      5.31417579	      6.13899307	    -10.83691914	     -0.01607460	      0.01202639	      0.03315156	    -30.72321916	    -14.66864410	    -37.57412856	    -12.20430328	     13.60707529	     19.95892805	    -37.51243585	     20.06954715	     42.78134815	      0.00225791	    -90.00000000
      2.64000000	      5.37823380	      6.42052486	    -10.95620899	     -0.01709589	      0.01189238	      0.03371513	    -30.91682052	    -15.07733599	    -37.83648397	    -12.50696575	     13.54655599	     20.17599179	    -34.53347445	     19.68287026	     39.85233008	      0.00225791	    -90.00000000
      2.66000000	      5.33069521	      6.83220850	    -10.63422846	     -0.01877888	      0.01191065	      0.03386354	    -30.84848442	    -15.27349076	    -37.85265701	    -12.57791737	     13.26047056	     20.35335452	    -31.88420418	     19.72838664	     35.87392234	      0.00225791	    -90.00000000
      2.68000000	      5.28117826	      7.20731786	    -10.17429172	     -0.02029526	      0.01217660	      0.03381108	    -30.68172439	    -15.42106620	    -37.44730032	    -12.70179804	     13.35828934	     20.42864250	    -30.95861482	     19.52563370	     35.35452861	      0.00225791	    -90.00000000
      2.70000000	      5.25002325	      7.55544418	    -10.27287191	     -0.02131541	      0.01191096	      0.03409629	    -30.79282633	    -15.73385751	    -37.67924803	    -12.89695054	     13.17164471	     20.63466231	    -27.74742007	     19.45121960	     31.05573797	      0.00225791	    -90.00000000
      2.72000000	      5.18331970	      7.92190932	     -9.84366893	     -0.02269970	      0.01221115	      0.03400396	    -30.63162860	    -15.86490533	    -37.28961421	    -13.00859165	     13.26807864	     20.70191077	    -26.88887263	     19.29427151	     30.61691245	      0.00225791	    -90.00000000
      2.74000000	      5.13446890	      8.29729220	     -9.94229625	     -0.02365844	      0.01187602	      0.03422181	    -30.75783874	    -16.06314769	    -37.50696189	    -13.14670867	     13.19223748	     20.82048430	    -23.92501471	     19.17552659	     26.71156060	      0.00225791	    -90.00000000
      2.76000000	      5.05328946	      8.70203109	     -9.78293087	     -0.02479011	      0.01189084	      0.03421307	    -30.77510099	    -16.21220024	    -37.47229468	    -13.26756955	     13.22420220	     20.89784363	    -22.20186158	     19.03180986	     24.78256239	      0.00225791	    -90.00000000
      2.78000000	      4.90348389	      9.06675987	     -9.50544391	     -0.02594778	      0.01200555	      0.03388755	    -30.61781695	    -16.32407571	    -37.10474316	    -13.36158181	     13.30645475	     20.95834035	    -21.34130333	     18.85940864	     24.34199452	      0.00225791	    -90.00000000
      2.80000000	      4.85802337	      9.35441077	     -9.51091325	     -0.02690419	      0.01190596	      0.03411381	    -30.73604603	    -16.47741776	    -37.22706185	    -13.49969191	     13.36888474	     21.02448539	    -19.03960260	     18.73628366	     21.24946930	      0.00225791	    -90.00000000
